HIERARCHY
ROOT Hips
{
	OFFSET 0.0000 0.0000 0.0000
	CHANNELS 6 Xposition Yposition Zposition Zrotation Xrotation Yrotation
	JOINT Ab
	{
		OFFSET -0.0000 8.1305 -0.0000
		CHANNELS 3 Zrotation Xrotation Yrotation
		JOINT Chest
		{
			OFFSET -0.0000 26.2902 -0.0000
			CHANNELS 3 Zrotation Xrotation Yrotation
			JOINT Neck
			{
				OFFSET -0.0000 26.2902 0.0000
				CHANNELS 3 Zrotation Xrotation Yrotation
				JOINT Head
				{
					OFFSET -0.0000 10.8167 0.0000
					CHANNELS 3 Zrotation Xrotation Yrotation
					End Site
					{
						OFFSET -0.0000 16.7167 0.0000
					}
				}
			}
			JOINT LeftCollar
			{
				OFFSET -0.0000 26.2902 0.0000
				CHANNELS 3 Zrotation Xrotation Yrotation
				JOINT LeftShoulder
				{
					OFFSET 19.6667 -0.0000 0.0000
					CHANNELS 3 Zrotation Xrotation Yrotation
					JOINT LeftElbow
					{
						OFFSET 27.2190 0.0000 0.0000
						CHANNELS 3 Zrotation Xrotation Yrotation
						JOINT LeftWrist
						{
							OFFSET 30.7431 0.0000 0.0000
							CHANNELS 3 Zrotation Xrotation Yrotation
							End Site
							{
								OFFSET 0.0000 -14.7500 0.0000
							}
						}
					}
				}
			}
			JOINT RightCollar
			{
				OFFSET -0.0000 26.2902 0.0000
				CHANNELS 3 Zrotation Xrotation Yrotation
				JOINT RightShoulder
				{
					OFFSET -19.6667 0.0000 0.0000
					CHANNELS 3 Zrotation Xrotation Yrotation
					JOINT RightElbow
					{
						OFFSET -27.2190 0.0000 0.0000
						CHANNELS 3 Zrotation Xrotation Yrotation
						JOINT RightWrist
						{
							OFFSET -30.7431 0.0000 0.0000
							CHANNELS 3 Zrotation Xrotation Yrotation
							End Site
							{
								OFFSET -0.0000 -14.7500 0.0000
							}
						}
					}
				}
			}
		}
	}
	JOINT LeftHip
	{
		OFFSET 11.8000 0.0000 0.0000
		CHANNELS 3 Zrotation Xrotation Yrotation
		JOINT LeftKnee
		{
			OFFSET -0.0000 -39.7832 0.0000
			CHANNELS 3 Zrotation Xrotation Yrotation
			JOINT LeftAnkle
			{
				OFFSET -0.0000 -41.7317 0.0000
				CHANNELS 3 Zrotation Xrotation Yrotation
				End Site
				{
					OFFSET -0.0000 -4.9167 16.7167
				}
			}
		}
	}
	JOINT RightHip
	{
		OFFSET -11.8000 0.0000 0.0000
		CHANNELS 3 Zrotation Xrotation Yrotation
		JOINT RightKnee
		{
			OFFSET -0.0000 -39.7832 0.0000
			CHANNELS 3 Zrotation Xrotation Yrotation
			JOINT RightAnkle
			{
				OFFSET -0.0000 -41.7317 0.0000
				CHANNELS 3 Zrotation Xrotation Yrotation
				End Site
				{
					OFFSET -0.0000 -4.9167 16.7167
				}
			}
		}
	}
}
MOTION
Frames: 20
Frame Time: 0.010000
-18.6895 97.0278 176.3444 358.5954 356.5473 180.8333 357.9164 348.0567 0.1455 2.9633 9.3882 0.1179 359.8059 359.9476 0.8399 353.3445 2.4590 0.9816 339.3814 357.3170 14.8100 315.9584 57.9765 341.1605 13.2018 356.4317 329.5846 88.0398 357.5852 351.8332 27.7243 355.8554 343.3530 46.6153 40.7000 0.3065 340.0021 354.2155 32.1415 270.1280 355.2179 10.2688 356.2651 2.0803 359.4673 357.9558 6.8133 4.8539 354.1679 351.5552 13.5715 358.9631 5.4195 11.6534 6.1010 4.7398 8.6931 348.3978 345.0094 311.9239 
-18.6955 97.0214 176.3315 358.5950 356.5244 180.8450 357.9372 348.0615 0.1498 2.9605 9.4071 0.1107 359.7668 359.9278 0.8536 353.3766 2.4758 0.9970 339.4050 357.2878 14.8267 315.8846 58.0396 341.1853 13.2713 356.3681 329.5985 88.1001 357.5838 351.9014 27.7302 355.8743 343.3376 46.5718 40.7183 0.3446 340.0752 354.2089 32.1060 270.0801 355.2726 10.3082 356.2605 2.0383 359.4582 357.9484 6.8654 4.8560 354.2660 351.5699 13.5779 358.9587 5.4046 11.6120 6.1017 4.7472 8.7013 348.3508 345.0221 311.9346 
-18.7062 97.0156 176.3100 358.5941 356.5126 180.8615 357.9458 348.0741 0.1483 2.9610 9.4217 0.1185 359.8348 359.8872 0.8500 353.2861 2.5267 0.9947 339.4067 357.3171 14.8318 315.8614 58.0106 341.1927 13.1625 356.3920 329.5742 88.1205 357.6325 351.8234 27.7144 355.8498 343.3382 46.6104 40.7045 0.3244 340.0093 354.2145 32.1283 270.1350 355.2373 10.2488 356.2506 2.0270 359.4228 357.9442 6.8926 4.8390 354.0263 351.4259 13.9003 358.9543 5.4138 11.5962 6.0985 4.7382 8.6669 348.3223 345.0468 311.9726 
-18.7125 97.0088 176.2904 358.5886 356.4934 180.8894 357.9231 348.0810 0.1531 2.9968 9.4356 0.1187 359.8622 359.8610 0.8445 353.2324 2.5535 0.9924 339.4312 357.2947 14.8256 315.7543 58.0743 341.2377 13.2947 356.3605 329.6112 88.0029 357.5696 351.8473 27.7062 355.8880 343.3249 46.6039 40.6654 0.3325 340.1011 354.2196 32.1379 270.1069 355.2260 10.3863 356.2422 1.9756 359.3762 357.9370 6.9799 4.8329 354.0120 351.3503 13.9092 358.9420 5.4111 11.5995 6.1078 4.7449 8.7149 348.3223 345.0222 311.8986 
-18.7177 97.0032 176.2690 358.5928 356.4746 180.8937 357.9311 348.0860 0.1589 3.0017 9.4456 0.1298 359.8763 359.8546 0.8469 353.2133 2.5729 0.9973 339.4306 357.3235 14.8066 315.7080 58.0512 341.3060 13.2107 356.3773 329.5662 88.1420 357.6157 351.8661 27.7042 355.8680 343.3111 46.6222 40.7222 0.3397 339.9282 354.1519 32.1829 271.0218 354.9339 9.0400 356.2450 1.9370 359.3630 357.9291 7.0510 4.7910 354.0120 351.3101 13.9640 358.9471 5.4064 11.5871 6.1009 4.7468 8.6983 348.3502 344.9718 311.9274 
-18.7320 97.0012 176.2475 358.5775 356.4465 180.9133 357.9251 348.0922 0.1638 2.9970 9.4340 0.1264 359.9094 359.8595 0.8506 353.1893 2.5923 1.0025 339.4306 357.2945 14.8136 315.6984 58.0983 341.3273 13.2856 356.3563 329.5822 88.0528 357.5831 351.8426 27.6822 355.8453 343.3051 46.6858 40.7834 0.2978 339.8829 354.1566 32.1592 270.9897 354.9674 8.9800 356.2169 1.8935 359.2976 357.9245 7.1083 4.8178 354.0483 351.2589 13.9749 358.9210 5.3908 11.5051 6.1105 4.7675 8.7258 348.3494 344.9572 311.9400 
-18.7370 96.9946 176.2357 358.5990 356.4057 180.9387 357.9264 348.0919 0.1681 3.0371 9.4439 0.1304 359.9050 359.8076 0.8394 353.2075 2.6436 0.9960 339.4257 357.3222 14.7755 315.6017 58.0652 341.4344 13.2268 356.3678 329.5306 88.1209 357.6286 351.8341 27.6727 355.8840 343.2898 46.6917 40.7402 0.3003 339.9520 354.1594 32.1792 270.9572 354.9529 9.0748 356.2391 1.8083 359.2739 357.9129 7.2085 4.7582 353.9953 351.1526 13.9990 358.9439 5.3491 11.4957 6.1052 4.7912 8.7357 348.3396 344.9383 311.9119 
-18.7483 96.9902 176.2061 358.5916 356.4009 180.9348 357.9381 348.1051 0.1764 3.0297 9.4610 0.1392 359.8804 359.8149 0.8375 353.2348 2.6421 0.9908 339.4503 357.2997 14.7720 315.5072 58.1099 341.5034 13.3478 356.3427 329.5461 88.1208 357.6128 351.9174 27.6632 355.8510 343.2949 46.7221 40.8100 0.2896 339.8598 354.1589 32.1598 270.9124 354.9250 9.0039 356.2227 1.7947 359.2671 357.9140 7.2674 4.7361 353.9721 351.0867 14.0249 358.9236 5.3800 11.5906 6.1205 4.7457 8.6311 348.3440 344.9128 311.9085 
-18.7599 96.9862 176.1817 358.5924 356.3749 180.9355 357.9586 348.1025 0.1865 3.0161 9.4838 0.1470 359.9020 359.7939 0.8491 353.2250 2.6533 1.0056 339.4327 357.3155 14.7502 315.5174 58.0421 341.5483 13.2289 356.3612 329.5204 88.1672 357.6285 351.8779 27.6776 355.8674 343.2947 46.6937 40.8083 0.2996 339.9507 354.1690 32.1715 270.8036 354.9652 9.0636 356.2220 1.7499 359.2105 357.8869 7.3467 4.7114 354.0806 351.0292 14.0852 358.9186 5.3603 11.5697 6.1180 4.7735 8.6641 348.3569 344.8696 311.8964 
-18.7788 96.9830 176.1583 358.5833 356.3389 180.9375 357.9611 348.0938 0.2010 3.0330 9.5041 0.1600 359.8427 359.7464 0.8419 353.2771 2.6970 0.9991 339.4294 357.3147 14.7359 315.4440 58.0343 341.6088 13.2854 356.3510 329.5063 88.1012 357.6157 351.8950 27.6706 355.8403 343.2769 46.6465 40.8553 0.3489 339.9278 354.1548 32.1579 270.8132 354.9663 9.0498 356.1919 1.6762 359.1868 357.8946 7.4504 4.7046 354.1334 350.9738 14.1154 358.8863 5.3356 11.5647 6.1292 4.7869 8.6961 348.3678 344.8341 311.8873 
-18.8004 96.9793 176.1277 358.5608 356.3174 180.9367 357.9798 348.1010 0.2058 2.9945 9.5017 0.1624 359.8054 359.7568 0.8398 353.3414 2.7025 0.9988 339.4432 357.3183 14.7628 315.4755 58.0611 341.5616 13.2822 356.3758 329.5297 88.1244 357.6331 351.9421 27.6865 355.8647 343.3282 46.7012 40.7716 0.2535 340.0801 354.2032 32.1179 270.0210 355.1839 10.4473 356.1450 1.6261 359.1168 357.9006 7.5489 4.6801 354.0613 350.8554 14.1915 358.8472 5.3256 11.5126 6.1314 4.8133 8.7343 348.3668 344.7798 311.8761 
-18.8185 96.9727 176.0780 358.5563 356.3202 180.9516 357.9963 348.1026 0.2092 2.9778 9.5237 0.1659 359.7816 359.7879 0.8439 353.3907 2.6925 0.9991 339.4533 357.2855 14.7460 315.3744 58.0491 341.6853 13.3293 356.3806 329.5301 88.1028 357.6390 351.9633 27.6702 355.8489 343.3262 46.7515 40.8386 0.2606 339.9852 354.1962 32.0591 270.0966 355.1603 10.3537 356.1286 1.6143 359.0507 357.8827 7.6422 4.7448 354.1724 350.8145 14.1850 358.8308 5.3684 11.4846 6.1323 4.8111 8.7489 348.3866 344.7289 311.8720 
-18.8381 96.9659 176.0463 358.5484 356.2988 180.9599 358.0006 348.1148 0.2156 2.9734 9.5162 0.1760 359.7920 359.7960 0.8472 353.3898 2.7076 1.0020 339.4346 357.3095 14.7213 315.3068 57.9405 341.8142 13.1960 356.4130 329.4822 88.2554 357.6356 352.0050 27.6729 355.8688 343.3337 46.7702 40.8791 0.2442 339.9790 354.2254 32.0371 270.0840 355.1764 10.3315 356.1019 1.5679 359.0283 357.8845 7.7329 4.7358 354.2355 350.7596 14.2149 358.8020 5.3543 11.4552 6.1500 4.8520 8.7988 348.4114 344.6502 311.8306 
-18.8559 96.9572 176.0134 358.5643 356.2620 180.9931 358.0307 348.1176 0.2078 2.9535 9.5147 0.1680 359.8532 359.7644 0.8465 353.3515 2.7415 1.0042 339.4718 357.2839 14.7409 315.2528 57.9669 341.8268 13.2932 356.3789 329.5262 88.0610 357.6399 351.8530 27.6683 355.8409 343.3134 46.7991 40.9581 0.2521 339.9202 354.1654 32.0132 270.1438 355.2005 10.3591 356.1104 1.5078 358.9506 357.8690 7.8133 4.7207 354.2166 350.6954 14.2471 358.8041 5.3459 11.4672 6.1601 4.8475 8.7774 348.4118 344.6179 311.8147 
-18.8758 96.9522 175.9690 358.5561 356.2450 181.0088 357.9929 348.1203 0.2286 3.0230 9.5311 0.1792 359.7958 359.7423 0.8472 353.3947 2.7646 1.0091 339.4563 357.3087 14.7548 315.1684 57.9216 341.8900 13.1984 356.3887 329.5082 88.1346 357.6873 351.8168 27.6605 355.8639 343.3215 46.7682 40.9089 0.2379 339.9883 354.2078 32.0607 270.1270 355.1695 10.4581 356.0894 1.4902 358.9102 357.8609 7.8696 4.7355 354.2538 350.6505 14.2608 358.7838 5.3476 11.4721 6.1684 4.8756 8.7474 348.4197 344.5419 311.8042 
-18.9022 96.9470 175.9322 358.5491 356.2097 181.0242 357.9975 348.1158 0.2296 3.0270 9.5472 0.1849 359.7391 359.6857 0.8246 353.4869 2.8028 0.9830 339.4798 357.2860 14.7658 315.1718 57.9776 341.8285 13.2677 356.3480 329.5717 88.1141 357.5601 351.7197 27.6655 355.8418 343.2914 46.7208 40.9133 0.2932 339.9836 354.1815 32.0708 270.0914 355.1862 10.4002 356.0604 1.4218 358.8361 357.8529 7.9912 4.6942 354.2785 350.5508 14.3439 358.7565 5.3188 11.3440 6.1719 4.9283 8.8175 348.4509 344.4640 311.8338 
-18.9264 96.9449 175.8822 358.5396 356.1799 181.0345 357.9608 348.0941 0.2546 3.0877 9.5714 0.2062 359.7312 359.6707 0.8260 353.5000 2.8013 0.9851 339.4569 357.3089 14.7937 315.2310 57.9811 341.7458 13.1869 356.4182 329.5969 88.2002 357.5877 351.7946 27.6460 355.8768 343.2568 46.6590 40.9319 0.3826 339.9986 354.2313 32.0285 270.2514 355.3357 10.7487 356.0339 1.3828 358.8032 357.8515 8.0759 4.6408 354.3780 350.4917 14.3942 358.7253 5.3223 11.3899 6.1926 4.9305 8.7893 348.4358 344.4214 311.7915 
-18.9538 96.9426 175.8299 358.5265 356.1472 181.0595 357.9871 348.0772 0.2447 3.0235 9.5685 0.1994 359.7850 359.6975 0.8129 353.5039 2.7790 0.9689 339.5039 357.3213 14.7772 315.2041 57.9893 341.7686 13.2214 356.3981 329.6170 88.1733 357.5587 351.7968 27.6407 355.8492 343.2362 46.7192 41.0061 0.3956 339.9923 354.1944 31.9789 269.9138 355.1762 10.3043 355.9996 1.3439 358.7338 357.8486 8.1621 4.5931 354.3473 350.3730 14.4679 358.6933 5.3145 11.3047 6.1961 4.9645 8.7897 348.4722 344.3319 311.8388 
-18.9790 96.9361 175.7893 358.5258 356.1013 181.0722 357.9978 348.0823 0.2520 3.0192 9.5418 0.2051 359.7552 359.6838 0.8122 353.5487 2.7856 0.9682 339.4907 357.3178 14.7989 315.2413 57.9760 341.7698 13.1877 356.3719 329.6090 88.1237 357.5754 351.7696 27.6654 355.8776 343.2691 46.7097 40.9831 0.3548 340.0620 354.2047 32.0133 269.8887 355.1978 10.3798 355.9886 1.2706 358.6241 357.8166 8.2802 4.5898 354.4090 350.2733 14.5369 358.6744 5.2742 11.2580 6.2088 5.0200 8.8171 348.4721 344.2567 311.8272 
-19.0046 96.9239 175.7103 358.5468 356.1244 181.0895 358.0401 348.1068 0.2591 2.9984 9.5571 0.2161 359.7461 359.6690 0.7950 353.5973 2.8007 0.9484 339.4915 357.2891 14.8175 315.2563 57.9663 341.7791 13.2030 356.4027 329.6110 88.0432 357.5393 351.7710 27.6624 355.8427 343.2848 46.7807 41.0112 0.3018 339.9433 354.1831 31.9901 269.9859 355.1765 10.2956 355.9945 1.3176 358.5588 357.8058 8.3456 4.5207 354.6133 350.1600 14.6181 358.6789 5.3428 11.1752 6.2150 5.0498 8.8554 348.4731 344.1579 311.8279 
